<svg xmlns="http://www.w3.org/2000/svg" xmlns:xlink="http://www.w3.org/1999/xlink" width="1179.458" height="1320.223" viewBox="0 0 1179.458 1320.223">
  <defs>
    <filter id="Path_3741" x="0" y="0" width="1161.542" height="1161.543" filterUnits="userSpaceOnUse">
      <feOffset dy="3" input="SourceAlpha"/>
      <feGaussianBlur stdDeviation="38.5" result="blur"/>
      <feFlood flood-color="#eb641a"/>
      <feComposite operator="in" in2="blur"/>
      <feComposite in="SourceGraphic"/>
    </filter>
  </defs>
  <g id="undraw_people_search_re_5rre" transform="translate(97.457 112.5)">
    <path id="Path_461" data-name="Path 461" d="M900.677,791.625a41.63,41.63,0,0,1-40.2-7.081c-14.08-11.818-18.5-31.286-22.086-49.316L827.768,681.9l22.242,15.316c16,11.014,32.351,22.381,43.427,38.335s15.91,37.732,7.012,54.994" transform="translate(130.424 346.726)" fill="#e6e6e6"/>
    <g transform="matrix(1, 0, 0, 1, -97.46, -112.5)" filter="url(#Path_3741)">
      <path id="Path_3741-2" data-name="Path 3741" d="M1245.032,1050.862H314.489V120.319h930.543Z" transform="translate(-198.99 -7.82)" fill="#fff"/>
    </g>
    <path id="Path_3742" data-name="Path 3742" d="M1245.032,1050.862H314.489V120.319h930.543Zm-916.794-13.748h903.046V134.067H328.237Z" transform="translate(-296.446 -120.319)" fill="#e5e5e5"/>
    <rect id="Rectangle_1128" data-name="Rectangle 1128" width="402.964" height="12.553" transform="translate(380.772 145.584)" fill="#e5e5e5"/>
    <rect id="Rectangle_1129" data-name="Rectangle 1129" width="402.964" height="12.553" transform="translate(380.772 178.221)" fill="#e5e5e5"/>
    <rect id="Rectangle_1130" data-name="Rectangle 1130" width="402.964" height="12.553" transform="translate(380.772 210.856)" fill="#e5e5e5"/>
    <rect id="Rectangle_1131" data-name="Rectangle 1131" width="402.964" height="12.553" transform="translate(380.772 425.829)" fill="#e5e5e5"/>
    <rect id="Rectangle_1132" data-name="Rectangle 1132" width="402.964" height="12.553" transform="translate(380.772 458.465)" fill="#e5e5e5"/>
    <rect id="Rectangle_1133" data-name="Rectangle 1133" width="402.964" height="12.553" transform="translate(380.772 491.101)" fill="#e5e5e5"/>
    <rect id="Rectangle_1134" data-name="Rectangle 1134" width="402.964" height="12.553" transform="translate(380.772 706.072)" fill="#e5e5e5"/>
    <rect id="Rectangle_1135" data-name="Rectangle 1135" width="402.964" height="12.553" transform="translate(380.772 738.708)" fill="#e5e5e5"/>
    <rect id="Rectangle_1136" data-name="Rectangle 1136" width="402.964" height="12.553" transform="translate(380.772 771.344)" fill="#e5e5e5"/>
    <path id="Path_3743" data-name="Path 3743" d="M462.474,265.124A134.59,134.59,0,0,0,441,256.086l-.944-10.447-38.3-4.126-4.868,13.353-13.745,5.158a6.693,6.693,0,0,0-1.395.727h-.015a6.811,6.811,0,0,0-2.906,4.533,6.963,6.963,0,0,0,.1,2.732l.726,2.979c1.046.625,2.121,1.221,3.2,1.787l.683.349c1.569.814,3.168,1.584,4.81,2.3.334.145.7.291,1.032.436.029.015.043.015.072.029.771.32,1.54.625,2.325.915a76.353,76.353,0,0,0,7.875,2.528,80.988,80.988,0,0,0,20.88,2.732c2.572,0,5.115-.116,7.628-.363a80.665,80.665,0,0,0,16.913-3.415c.014,0,.029-.014.043-.014a79.4,79.4,0,0,0,10.157-4.025c.014-.014.043-.014.058-.029.741-.349,1.453-.727,2.18-1.09l.348-.174c.581-.305,1.163-.61,1.744-.93,1.453-.8,2.877-1.642,4.286-2.543.392-.233.771-.48,1.163-.741.552-.363,1.1-.741,1.642-1.133C465.337,266.737,463.926,265.909,462.474,265.124Z" transform="translate(-243.017 -19.528)" fill="#3f3d56"/>
    <path id="Path_3744" data-name="Path 3744" d="M393.626,262.832l-2.4-10.825h-6.263a1.507,1.507,0,0,0-.189.015h-.015a13.571,13.571,0,0,0-6.306,2.18,13.964,13.964,0,0,0-3.371,3.022c1.86,1.409,3.792,2.717,5.783,3.967l.087.044c.566.349,1.148.7,1.729,1.032,1.046.625,2.121,1.221,3.2,1.787l.683.349c1.569.814,3.168,1.584,4.81,2.3.334.145.7.291,1.032.436.029.015.043.015.072.029.77.32,1.54.625,2.325.915Z" transform="translate(-246.051 -10.8)" fill="#3f3d56"/>
    <circle id="Ellipse_430" data-name="Ellipse 430" cx="27.585" cy="27.585" r="27.585" transform="translate(148.798 160.209)" fill="#ffb8b8"/>
    <path id="Path_3745" data-name="Path 3745" d="M396.374,227.267c2.856,3.379,7.688,4.333,12.146,4.724a114.394,114.394,0,0,0,31.065-2.537c.631,6.12-1.09,12.719,2.515,17.754a82.418,82.418,0,0,0,2.929-18.684,17.884,17.884,0,0,0-1.035-8,7.36,7.36,0,0,0-6.27-4.622,15.713,15.713,0,0,1,7.009-3l-8.759-4.4,2.249-2.309-15.857-.97,4.593-2.918a99.6,99.6,0,0,0-20.865-.659,17.911,17.911,0,0,0-9.228,2.565c-2.618,1.872-4.131,5.593-2.506,8.342a12.113,12.113,0,0,0-9.231,7.325,19.556,19.556,0,0,0-.7,9.4,66.632,66.632,0,0,0,3.493,14.779Z" transform="translate(-238.512 -52.908)" fill="#2f2e41"/>
    <path id="Path_3746" data-name="Path 3746" d="M514.748,231.192a80.946,80.946,0,1,0-139.882,76.894c.726.915,1.482,1.831,2.253,2.717.058.058.1.116.16.174a78.554,78.554,0,0,0,6.03,6.219c.553.509,1.134,1.032,1.715,1.526,1.1.988,2.238,1.932,3.415,2.833.465.363.915.727,1.395,1.075,1.86,1.409,3.792,2.717,5.783,3.967l.087.044c.566.349,1.148.7,1.729,1.032,1.046.625,2.121,1.221,3.2,1.787l.683.349c1.569.814,3.168,1.584,4.81,2.3.334.145.7.291,1.032.436.029.015.043.015.072.029.771.32,1.54.625,2.325.915a76.38,76.38,0,0,0,7.875,2.528,80.985,80.985,0,0,0,20.88,2.732c2.572,0,5.115-.116,7.628-.363a80.664,80.664,0,0,0,16.913-3.415c.014,0,.029-.015.043-.015a79.389,79.389,0,0,0,10.157-4.025c.014-.015.043-.015.058-.029.741-.349,1.453-.727,2.18-1.09l.348-.174c.581-.305,1.163-.61,1.744-.93,1.453-.8,2.877-1.642,4.286-2.543.392-.233.77-.48,1.163-.741.552-.363,1.1-.741,1.642-1.133.712-.494,1.424-1,2.121-1.526.218-.16.451-.32.668-.494a80.918,80.918,0,0,0,27.491-91.075Zm-30.164,87.544c-.48.378-.973.741-1.468,1.075-.48.363-.959.712-1.453,1.032-.421.305-.843.6-1.279.872l-.131.087c-.32.218-.639.421-.959.625q-1.809,1.133-3.662,2.18l-.392.218c-.552.305-1.1.6-1.656.886-.073.044-.16.073-.233.116l-.087.044c-.7.363-1.41.712-2.121,1.046a71.261,71.261,0,0,1-8.471,3.429c-.378.131-.756.262-1.133.378a76.216,76.216,0,0,1-16.012,3.255c-2.383.218-4.8.334-7.222.334a75.486,75.486,0,0,1-19.746-2.586,71.748,71.748,0,0,1-9.692-3.284c-.16-.073-.335-.131-.495-.2s-.334-.131-.494-.2-.334-.145-.509-.232c-1.366-.6-2.717-1.25-4.039-1.933l-.639-.334c-1.613-.843-3.2-1.744-4.737-2.7-.451-.276-.915-.567-1.352-.872-.116-.073-.218-.145-.334-.218-1.032-.683-2.063-1.395-3.066-2.136-.682-.509-1.366-1.017-2.034-1.54-1.119-.843-2.194-1.744-3.24-2.674-.552-.465-1.09-.974-1.613-1.453a73.841,73.841,0,0,1-5.841-6.044c-.61-.7-1.206-1.395-1.773-2.121a5.533,5.533,0,0,1-.363-.45,76.514,76.514,0,1,1,106.245,13.411Z" transform="translate(-260.798 -73.3)" fill="#3f3d56"/>
    <path id="Path_3747" data-name="Path 3747" d="M514.749,384.193a80.947,80.947,0,1,0-139.882,76.894c.726.915,1.482,1.831,2.252,2.717.058.058.1.116.16.174a78.66,78.66,0,0,0,6.031,6.219c.552.509,1.133,1.032,1.714,1.526,1.1.988,2.238,1.933,3.415,2.833a79.585,79.585,0,0,0,7.178,5.042l.087.044c1.613,1,3.254,1.932,4.926,2.819l.682.349c1.569.814,3.168,1.584,4.81,2.3.334.145.7.291,1.032.436.029.015.044.015.073.029a78.629,78.629,0,0,0,10.2,3.444,80.986,80.986,0,0,0,20.879,2.731c2.572,0,5.115-.116,7.628-.363a80.654,80.654,0,0,0,16.913-3.415c.015,0,.029-.015.043-.015a79.343,79.343,0,0,0,10.157-4.025c.014-.014.044-.014.058-.029.741-.349,1.453-.727,2.18-1.09l.349-.174c.581-.305,1.162-.61,1.743-.93,1.453-.8,2.877-1.642,4.287-2.543.392-.233.77-.48,1.162-.741,1.279-.843,2.543-1.744,3.763-2.659.219-.16.451-.32.669-.494a80.922,80.922,0,0,0,27.491-91.075Z" transform="translate(-260.797 53.943)" fill="#fff"/>
    <circle id="Ellipse_188" data-name="Ellipse 188" cx="12.131" cy="12.131" r="12.131" transform="translate(192.088 473.845)" fill="#2f2e41"/>
    <path id="Path_969" data-name="Path 969" d="M422.279,380.021a12.133,12.133,0,0,1,10.68,17.89,12.128,12.128,0,1,0-20.15-13.327,12.1,12.1,0,0,1,9.472-4.562Z" transform="translate(-214.679 94.158)" fill="#2f2e41"/>
    <circle id="Ellipse_189" data-name="Ellipse 189" cx="35.637" cy="35.637" r="35.637" transform="translate(145.914 414.677)" fill="#2f2e41"/>
    <path id="Path_970" data-name="Path 970" d="M393.44,360.3a35.631,35.631,0,0,1,49.388-3.737c-.291-.277-.581-.557-.882-.825a35.637,35.637,0,0,0-47.557,53.086l.2.181c.3.269.613.523.923.78a35.631,35.631,0,0,1-2.073-49.485Z" transform="translate(-239.859 67.905)" fill="#2f2e41"/>
    <circle id="Ellipse_190" data-name="Ellipse 190" cx="22.952" cy="22.952" r="22.952" transform="translate(158.296 439.744)" fill="#a0616a"/>
    <path id="Path_3748" data-name="Path 3748" d="M473.411,421.553v7.7c-1.41.9-2.834,1.744-4.287,2.543-.581.32-1.162.625-1.743.93l-.349.174c-.727.363-1.439.741-2.18,1.09-.014.015-.044.015-.058.029a79.322,79.322,0,0,1-10.157,4.025c-.014,0-.028.015-.043.015a80.661,80.661,0,0,1-16.913,3.415c-2.514.247-5.056.363-7.628.363a80.98,80.98,0,0,1-20.879-2.732,78.628,78.628,0,0,1-10.2-3.444c-.029-.014-.044-.014-.073-.029-.334-.145-.7-.291-1.032-.436-1.642-.712-3.24-1.482-4.81-2.3l-.683-.349c-1.672-.886-3.313-1.816-4.926-2.819l-.087-.044a79.571,79.571,0,0,1-7.178-5.042c-1.177-.9-2.31-1.845-3.415-2.833-.581-.494-1.162-1.017-1.714-1.526a78.682,78.682,0,0,1-6.031-6.219,29.391,29.391,0,0,1,1.1-4.461l.014-.014a6.507,6.507,0,0,1,.305-.727,5.8,5.8,0,0,1,.276-.61c2.6-4.868,7.309-6.074,13.15-6.335,3.3-.145,6.945.015,10.8-.029,2.034-.015,4.141-.087,6.248-.276,13.295-1.206,10.883-9.052,11.479-13.281.6-4.1,4.287-.552,4.534-.32l.014.015a46.891,46.891,0,0,0,24.12,4.228c1.424-.174,2.848-.276,4.272-.32,3.749-.044,2.935,1.032,1.642,1.918a16.247,16.247,0,0,1-1.962,1.1s-.6,3.633-1.206,9.067c-.581,5.2,9.386,7.643,10.214,7.832a.088.088,0,0,0,.058.015,20.014,20.014,0,0,1,11.058.291h.014a13.1,13.1,0,0,1,8.253,9.386Z" transform="translate(-251.091 100.945)" fill="#eb641a"/>
    <path id="Path_3749" data-name="Path 3749" d="M392.586,424.977c0,1.075-.028,2.107-.072,3.08-.014.581-.043,1.148-.072,1.685-.029-.014-.044-.014-.073-.029-.334-.145-.7-.291-1.032-.436-1.642-.712-3.24-1.482-4.81-2.3l-.682-.349c-1.672-.886-3.313-1.816-4.926-2.819.043-.509.116-1.017.189-1.526.16-1.119.291-2.252.378-3.371a46.763,46.763,0,0,0-4.141-22.9V396c-.291-.581-.465-.9-.465-.9s4.228-3.633,10.258,0a3.63,3.63,0,0,1,1,.872C391.772,400.261,392.76,414.674,392.586,424.977Z" transform="translate(-244.56 106.864)" fill="#2f2e41"/>
    <path id="Path_3750" data-name="Path 3750" d="M426.677,418.158c-.058,1.627-.145,3.327-.247,5.056v.015c-.014.015-.044.015-.058.029a79.318,79.318,0,0,1-10.157,4.025c-.014,0-.028.015-.043.015l-.16-4.083-.015-.538-.77-19.877a3.335,3.335,0,0,1,3.328-3.487h7.367c.363,0,.625.741.8,2.078v.015A125.919,125.919,0,0,1,426.677,418.158Z" transform="translate(-212.67 111.707)" fill="#2f2e41"/>
    <path id="Path_975" data-name="Path 975" d="M392.874,357.267v22.958h5.315l6.764-7.248-.905,7.248h23.5l-1.453-7.248L429,380.225h3.746V357.267Z" transform="translate(-231.257 76.74)" fill="#2f2e41"/>
    <ellipse id="Ellipse_191" data-name="Ellipse 191" cx="1.812" cy="3.322" rx="1.812" ry="3.322" transform="translate(156.182 454.544)" fill="#a0616a"/>
    <ellipse id="Ellipse_192" data-name="Ellipse 192" cx="1.812" cy="3.322" rx="1.812" ry="3.322" transform="translate(202.691 454.544)" fill="#a0616a"/>
    <path id="Path_3751" data-name="Path 3751" d="M433.678,412.077c-1.22.915-2.485,1.816-3.763,2.659-.392.262-.77.508-1.162.741-1.41.9-2.834,1.744-4.287,2.543-.581.32-1.162.625-1.743.93V402.937s2.324,1.86,6.03,4.955c.465.392.944.8,1.453,1.235C431.28,410.029,432.444,411.016,433.678,412.077Z" transform="translate(-206.433 114.722)" fill="#fe7142"/>
    <path id="Path_3752" data-name="Path 3752" d="M514.749,384.193a80.947,80.947,0,1,0-139.882,76.894c.726.915,1.482,1.831,2.252,2.717.058.058.1.116.16.174a78.66,78.66,0,0,0,6.031,6.219c.552.509,1.133,1.032,1.714,1.526,1.1.988,2.238,1.933,3.415,2.833a79.585,79.585,0,0,0,7.178,5.042l.087.044c1.613,1,3.254,1.932,4.926,2.819l.682.349c1.569.814,3.168,1.584,4.81,2.3.334.145.7.291,1.032.436.029.015.044.015.073.029a78.629,78.629,0,0,0,10.2,3.444,80.986,80.986,0,0,0,20.879,2.731c2.572,0,5.115-.116,7.628-.363a80.654,80.654,0,0,0,16.913-3.415c.015,0,.029-.015.043-.015a79.343,79.343,0,0,0,10.157-4.025c.014-.014.044-.014.058-.029.741-.349,1.453-.727,2.18-1.09l.349-.174c.581-.305,1.162-.61,1.743-.93,1.453-.8,2.877-1.642,4.287-2.543.392-.233.77-.48,1.162-.741,1.279-.843,2.543-1.744,3.763-2.659.219-.16.451-.32.669-.494a80.922,80.922,0,0,0,27.491-91.075Zm-30.165,87.544c-.48.378-.973.741-1.467,1.075-.48.363-.959.712-1.453,1.032-.421.305-.843.6-1.279.872-.363.247-.727.479-1.09.712q-1.808,1.133-3.661,2.18l-.393.218c-.552.305-1.1.6-1.656.886-.073.044-.16.073-.233.116l-.087.044c-.7.363-1.409.712-2.121,1.046a71.24,71.24,0,0,1-8.471,3.429c-.377.131-.756.261-1.133.378a76.222,76.222,0,0,1-16.012,3.255c-2.383.218-4.8.334-7.222.334a75.489,75.489,0,0,1-19.746-2.586,71.767,71.767,0,0,1-9.691-3.284c-.334-.131-.668-.276-.988-.407-.174-.073-.334-.145-.509-.232-1.366-.6-2.717-1.25-4.039-1.933l-.639-.334c-1.613-.843-3.2-1.744-4.737-2.7-.566-.349-1.133-.712-1.685-1.09-1.744-1.148-3.444-2.383-5.1-3.676-1.119-.843-2.194-1.744-3.24-2.674-.552-.465-1.09-.974-1.613-1.453a73.931,73.931,0,0,1-5.841-6.044c-.61-.7-1.206-1.395-1.773-2.121a5.51,5.51,0,0,1-.363-.45,76.514,76.514,0,1,1,106.245,13.411Z" transform="translate(-260.797 53.943)" fill="#3f3d56"/>
    <circle id="Ellipse_431" data-name="Ellipse 431" cx="31.714" cy="31.714" r="31.714" transform="translate(146.251 717.938)" fill="#2f2e41"/>
    <ellipse id="Ellipse_432" data-name="Ellipse 432" cx="13.123" cy="9.842" rx="13.123" ry="9.842" transform="translate(130.017 727.914) rotate(-45)" fill="#2f2e41"/>
    <ellipse id="Ellipse_433" data-name="Ellipse 433" cx="9.842" cy="13.123" rx="9.842" ry="13.123" transform="translate(183.018 721.229) rotate(-66.869)" fill="#2f2e41"/>
    <path id="Path_3753" data-name="Path 3753" d="M436.955,569.813l-3.737-5.88A14.666,14.666,0,1,0,406.4,575.821l1.063,3.81,1.209,4.323a82.79,82.79,0,0,0,14.433-3.15.062.062,0,0,0,.037-.018,77.19,77.19,0,0,0,10.166-4.029c.018-.018.036-.018.055-.037.732-.348,1.447-.714,2.18-1.081a3.181,3.181,0,0,0,.348-.183c.586-.293,1.172-.6,1.74-.916q.879-.467,1.7-.989Z" transform="translate(-221.055 241.357)" fill="#cacaca"/>
    <circle id="Ellipse_434" data-name="Ellipse 434" cx="26.916" cy="26.916" r="26.916" transform="translate(152.055 730.309)" fill="#ffb6b6"/>
    <path id="Path_3754" data-name="Path 3754" d="M457.849,570.418a58.216,58.216,0,0,0-10.935-13.261,15.988,15.988,0,0,0-10.66-4.066H398.338a15.98,15.98,0,0,0-15.954,17,16.369,16.369,0,0,0,.66,3.627,17.212,17.212,0,0,0,1.007,2.491l1.868,3.737c.147.055.293.128.439.183.037.018.055.018.073.037.769.311,1.539.623,2.326.916a75.711,75.711,0,0,0,7.877,2.528,79.352,79.352,0,0,0,13.114,2.363c2.583.238,5.166.367,7.767.367,2.583,0,5.11-.128,7.638-.366.825-.073,1.648-.165,2.473-.256a82.788,82.788,0,0,0,14.433-3.15.062.062,0,0,0,.037-.018,77.207,77.207,0,0,0,10.166-4.03c.018-.018.036-.018.055-.037.732-.348,1.447-.714,2.18-1.081a3.165,3.165,0,0,0,.348-.183c.586-.293,1.173-.6,1.74-.916q.879-.467,1.7-.989c.587-.311,1.136-.659,1.7-1.007C459.3,572.928,458.582,571.646,457.849,570.418Z" transform="translate(-240.008 239.598)" fill="#cacaca"/>
    <path id="Path_3755" data-name="Path 3755" d="M407.038,556.4a14.655,14.655,0,0,0-19.451,7l-3.371,5.092-1.612,2.436-2.454,3.7c.512.275,1.007.55,1.52.824l.677.348c1.576.806,3.169,1.575,4.818,2.29.182.092.385.165.586.256.147.055.293.128.439.183.037.018.055.018.073.037.769.311,1.539.623,2.326.916a75.736,75.736,0,0,0,7.877,2.527,79.353,79.353,0,0,0,13.114,2.363l1.282-4.341,1.246-4.14a14.677,14.677,0,0,0-7.071-19.489Z" transform="translate(-241.839 241.198)" fill="#cacaca"/>
    <path id="Path_3756" data-name="Path 3756" d="M386.908,531.03a36.606,36.606,0,0,0,20.921,6.465,22.43,22.43,0,0,1-8.891,3.658,73.818,73.818,0,0,0,30.152.169,19.516,19.516,0,0,0,6.312-2.168,7.988,7.988,0,0,0,3.9-5.21c.661-3.779-2.283-7.212-5.343-9.526a39.415,39.415,0,0,0-33.122-6.619,18.138,18.138,0,0,0-9.81,5.543,8.936,8.936,0,0,0-.825,10.612Z" transform="translate(-236.219 209.264)" fill="#2f2e41"/>
    <path id="Path_3757" data-name="Path 3757" d="M514.757,537.2a80.948,80.948,0,1,0-139.883,76.893c.714.916,1.484,1.832,2.253,2.711a1.511,1.511,0,0,0,.147.183,77.191,77.191,0,0,0,6.044,6.209c.549.513,1.117,1.044,1.7,1.539,1.1.989,2.234,1.923,3.424,2.821.458.366.916.733,1.393,1.081,1.85,1.41,3.791,2.711,5.77,3.975a.139.139,0,0,1,.091.037c.568.348,1.155.7,1.74,1.026.549.33,1.117.659,1.667.971.512.275,1.007.55,1.52.824l.677.348c1.576.806,3.169,1.575,4.818,2.29.182.092.385.165.586.256.147.055.293.128.439.183.037.018.055.018.073.037.769.311,1.539.623,2.326.916a75.766,75.766,0,0,0,7.877,2.528,79.377,79.377,0,0,0,13.114,2.363c2.583.238,5.166.366,7.767.366,2.583,0,5.11-.128,7.638-.366.825-.073,1.648-.165,2.473-.256a82.81,82.81,0,0,0,14.433-3.15.062.062,0,0,0,.037-.018,77.2,77.2,0,0,0,10.166-4.03c.018-.018.036-.018.055-.037.732-.348,1.447-.714,2.18-1.081a3.185,3.185,0,0,0,.348-.183c.586-.293,1.173-.6,1.74-.916q.879-.467,1.7-.989c.587-.311,1.136-.659,1.7-1.007l.879-.549c.4-.238.769-.476,1.172-.751.549-.348,1.1-.733,1.63-1.117.715-.495,1.429-1.007,2.125-1.539a7.977,7.977,0,0,0,.678-.495,81,81,0,0,0,27.493-91.07ZM484.59,624.731c-.477.385-.971.751-1.465,1.081-.5.366-.971.714-1.466,1.044-.421.293-.843.586-1.282.861a.8.8,0,0,1-.129.091c-.311.22-.641.421-.952.623-.22.128-.439.275-.659.4-.641.4-1.283.788-1.942,1.154-.348.22-.715.421-1.062.623l-.385.22c-.568.311-1.117.586-1.667.879-.072.055-.165.073-.219.128a.142.142,0,0,0-.092.037c-.7.366-1.41.714-2.124,1.044a70.711,70.711,0,0,1-8.481,3.425c-.366.128-.75.275-1.117.385a76.658,76.658,0,0,1-14.342,3.077c-.549.073-1.117.128-1.685.183-2.381.22-4.78.33-7.217.33-2.162,0-4.341-.092-6.484-.275a75.517,75.517,0,0,1-13.261-2.308,70.155,70.155,0,0,1-9.69-3.3c-.165-.073-.33-.128-.495-.2-.183-.073-.33-.128-.495-.2-.183-.073-.33-.146-.513-.238-1.19-.513-2.381-1.081-3.535-1.667-.165-.092-.33-.165-.495-.256l-.641-.33c-.385-.2-.769-.4-1.136-.6-1.227-.659-2.436-1.374-3.608-2.106-.44-.275-.916-.568-1.356-.861l-.33-.22c-1.026-.7-2.051-1.392-3.059-2.143-.678-.513-1.374-1.007-2.033-1.539-1.117-.843-2.2-1.74-3.242-2.674-.55-.458-1.1-.971-1.612-1.447a72.692,72.692,0,0,1-5.843-6.044c-.6-.7-1.209-1.392-1.777-2.125-.128-.146-.238-.293-.367-.458a76.524,76.524,0,1,1,106.255,13.408Z" transform="translate(-260.795 181.182)" fill="#3f3d56"/>
    <path id="Path_3758" data-name="Path 3758" d="M617.568,316.971a190.241,190.241,0,1,0,10.786,280.956l233.353,196.9a17.531,17.531,0,1,0,22.636-26.775l-.026-.022L650.964,571.13a190.252,190.252,0,0,0-33.4-254.158Zm-15.043,235.2a142.529,142.529,0,1,1-17.016-200.848h0A142.53,142.53,0,0,1,602.524,552.171Z" transform="translate(-304.638 5.929)" fill="#3f3d56"/>
    <path id="Path_3759" data-name="Path 3759" d="M387.443,521.3A142.537,142.537,0,0,1,363.258,329.7q-4.088,4.117-7.9,8.623A142.529,142.529,0,1,0,573.217,522.153q3.807-4.512,7.17-9.241A142.537,142.537,0,0,1,387.443,521.3Z" transform="translate(-290.405 53.811)" opacity="0.3"/>
    <path id="Path_3760" data-name="Path 3760" d="M768.276,654.024a19.677,19.677,0,0,0-5.621-29.644l-42.535-174.1-31.029,9.905L735.022,633.1a19.783,19.783,0,0,0,33.255,20.927Z" transform="translate(15.094 154.097)" fill="#ffb6b6"/>
    <path id="Path_3761" data-name="Path 3761" d="M447.934,423.145l-22.676,19.562-31.724,27.348-14.012-71.691-1.465-7.455-1.154-5.916L409.048,329l26.8,1.537,1.832.11.037.4.421,3.755,5.495,49.416.128,1.192Z" transform="translate(313.451 273.614)" fill="#3f3d56"/>
    <path id="Path_3762" data-name="Path 3762" d="M349.809,685.4l-22.454,0-10.684-86.615,33.144,0Z" transform="translate(263.36 497.982)" fill="#ffb6b6"/>
    <path id="Path_3763" data-name="Path 3763" d="M675.4,791.49l-72.407,0v-.916a28.184,28.184,0,0,1,28.18-28.182h0l44.224,0Z" transform="translate(-56.507 413.662)" fill="#2f2e41"/>
    <path id="Path_3764" data-name="Path 3764" d="M477.809,686.4l-22.454,0-10.684-86.615,33.144,0Z" transform="translate(369.812 498.814)" fill="#ffb6b6"/>
    <path id="Path_3765" data-name="Path 3765" d="M803.4,792.49l-72.407,0v-.916a28.184,28.184,0,0,1,28.181-28.182h0l44.224,0Z" transform="translate(49.944 414.493)" fill="#2f2e41"/>
    <path id="Path_3766" data-name="Path 3766" d="M917.75,1000.145l-60.445,9.158L769.368,711.7l-93.4,299.439-67.771-9.158L696.12,653.962V626.487l11.906-41.212-1.246-11.155-8.664-78.01-3.755-33.831-.243-2.185a7.428,7.428,0,0,1,5.848-8.09h0l28.207-5.935h46.1l27.2,7.491,1.868.513.843.238-.421,3.517-6.374,53.448-.348,2.931-6.155,51.525-1.355,11.3c53.118,38.465,54.95,76.929,54.95,76.929Z" transform="translate(-52.18 150.592)" fill="#2f2e41"/>
    <circle id="Ellipse_435" data-name="Ellipse 435" cx="44.987" cy="44.987" r="44.987" transform="translate(648.485 483.513)" fill="#ffb6b6"/>
    <rect id="Rectangle_1137" data-name="Rectangle 1137" width="89.751" height="12.822" transform="translate(651.731 728.925) rotate(-7.451)" fill="#3f3d56"/>
    <path id="Path_3767" data-name="Path 3767" d="M608.706,539.363a19.266,19.266,0,0,1,2.411,1.845l88.023-22.439,6-21.235,33.232,4.874L731.4,541.033A14.653,14.653,0,0,1,718.514,553L615.737,563.825a19.227,19.227,0,1,1-7.032-24.461Z" transform="translate(-76.347 193.394)" fill="#ffb6b6"/>
    <path id="Path_3768" data-name="Path 3768" d="M691.239,461.123,675.67,449.218c-4.209-1.6-9.978,2.94-10.99,7.327L642.7,546.3l45.791,32.97,6.411-10.074Z" transform="translate(-23.488 152.939)" fill="#3f3d56"/>
    <g id="Group_590" data-name="Group 590" transform="translate(656.582 596.66)" opacity="0.2">
      <path id="Path_3769" data-name="Path 3769" d="M763.6,507.245a124.005,124.005,0,0,1-11.869,4.03c-1.282.385-2.6.751-3.9,1.1a120.921,120.921,0,0,1-26.266,4.249,82.692,82.692,0,0,1-11.466-.311,64.553,64.553,0,0,1-12.07-2.381c-.129-.037-.275-.073-.4-.11a52.945,52.945,0,0,1-21.888-12.437,43.161,43.161,0,0,1-3.865-4.3,38.9,38.9,0,0,1-8.353-30.277,25.925,25.925,0,0,1,.624-2.876,45.983,45.983,0,0,1,2.728-7.51c.495-1.136,1.045-2.253,1.631-3.352l20.7-7h39.417l27.2,7.491,1.832.11.037.4.843.238-.421,3.517Z" transform="translate(-663.103 -446.068)"/>
    </g>
    <path id="Path_3770" data-name="Path 3770" d="M678.215,398.545c-8.413-1.031-17.646-.3-24.2,5.069s-8.674,16.536-2.465,22.306c5.5,5.109,14.091,3.907,21.453,5.36a29.039,29.039,0,0,1,22.682,27.762c-.11,18.635-17.994,32.748-21.207,51.1-2.193,12.528,3.091,25.713,12.226,34.563s21.693,13.632,34.345,14.928,25.446-.683,37.743-3.934c12.348-3.264,24.5-7.9,34.864-15.364s18.853-18,22.18-30.328.938-26.469-7.634-35.937c-9.816-10.842-26.146-14.57-34.636-26.478-9.518-13.349-6-32.359-13.7-46.83-5.143-9.662-14.881-16.253-25.262-19.724s-21.465-4.157-32.406-4.493c-5.751-.177-11.677-.236-17.035,1.861s-10.067,6.875-10.345,12.621S678.215,398.545,678.215,398.545Z" transform="translate(-19.214 92.71)" fill="#2f2e41"/>
    <path id="Path_3771" data-name="Path 3771" d="M1212.054,781.344H514.194a1.832,1.832,0,0,1,0-3.663h697.86a1.832,1.832,0,0,1,0,3.663Z" transform="translate(-131.885 426.379)" fill="#cacaca"/>
  </g>
</svg>
